<?xml version="1.0" encoding="UTF-8"?>
<svg id="Layer_1" xmlns="http://www.w3.org/2000/svg" version="1.1" viewBox="0 0 250 250">
  <!-- Generator: Adobe Illustrator 30.1.0, SVG Export Plug-In . SVG Version: 2.1.1 Build 136)  -->
  <defs>
    <style>
      .st0 {
        fill: #010101;
      }
    </style>
  </defs>
  <path class="st0" d="M221.16,47.83h-77.28v-22.08c0-8.13-6.59-14.72-14.72-14.72H48.2c-8.13,0-14.72,6.59-14.72,14.72v22.08h-3.68c-10.16.01-18.39,8.24-18.4,18.4v110.4c.01,10.16,8.24,18.39,18.4,18.4h69.92v14.72h-7.36c-8.13,0-14.72,6.59-14.72,14.72v11.04c0,2.03,1.65,3.68,3.68,3.68h88.32c2.03,0,3.68-1.65,3.68-3.68v-11.04c0-8.13-6.59-14.72-14.72-14.72h-7.36v-14.72h69.92c10.16-.01,18.39-8.24,18.4-18.4v-110.4c-.01-10.16-8.24-18.39-18.4-18.4ZM40.84,25.75c0-4.06,3.3-7.36,7.36-7.36h80.96c4.06,0,7.36,3.3,7.36,7.36v110.4c0,4.06-3.3,7.36-7.36,7.36H48.2c-4.06,0-7.36-3.3-7.36-7.36V25.75ZM29.8,55.19h3.68v80.96c0,8.13,6.59,14.72,14.72,14.72h80.96c8.13,0,14.72-6.59,14.72-14.72V55.19h77.28c6.1,0,11.04,4.94,11.04,11.04v92H18.75v-92c0-6.1,4.94-11.04,11.04-11.04ZM165.96,224.48v7.36h-80.96v-7.36c0-4.06,3.3-7.36,7.36-7.36h66.24c4.06,0,7.36,3.3,7.36,7.36ZM143.88,209.76h-36.8v-14.72h36.8v14.72ZM221.16,187.68H29.8c-6.1,0-11.04-4.94-11.04-11.04v-11.04h213.45v11.04c0,6.1-4.94,11.04-11.04,11.04Z"/>
  <path class="st0" d="M107.08,172.95h36.8v7.36h-36.8v-7.36Z"/>
  <path class="st0" d="M51.88,121.43h73.6c2.03,0,3.68-1.65,3.68-3.68V29.43c0-2.03-1.65-3.68-3.68-3.68H51.88c-2.03,0-3.68,1.65-3.68,3.68v88.32c0,2.03,1.65,3.68,3.68,3.68ZM55.56,33.11h66.24v80.96H55.56V33.11Z"/>
  <path class="st0" d="M77.64,128.79h22.08v7.36h-22.08v-7.36Z"/>
  <path class="st0" d="M169.64,150.87h29.44c6.1,0,11.04-4.94,11.04-11.04v-66.24c0-6.1-4.94-11.04-11.04-11.04h-29.44c-6.1,0-11.04,4.94-11.04,11.04v66.24c0,6.1,4.94,11.04,11.04,11.04ZM199.08,143.51h-29.44c-2.03,0-3.68-1.65-3.68-3.68v-3.68h36.8v3.68c0,2.03-1.65,3.68-3.68,3.68ZM169.64,69.91h29.44c2.03,0,3.68,1.65,3.68,3.68v55.2h-36.8v-55.2c0-2.03,1.65-3.68,3.68-3.68Z"/>
  <path class="st0" d="M177,77.27h14.72v7.36h-14.72v-7.36Z"/>
  <path class="st0" d="M108.72,73.98l-36.8-18.4c-1.82-.91-4.03-.17-4.94,1.65-.26.51-.39,1.08-.39,1.65v36.8c0,2.03,1.65,3.68,3.68,3.68.57,0,1.14-.13,1.65-.39l36.8-18.4c1.82-.91,2.56-3.12,1.65-4.94-.36-.72-.94-1.3-1.65-1.65ZM73.96,89.72v-24.89l24.89,12.45-24.89,12.45Z"/>
</svg>