<?xml version="1.0" encoding="UTF-8"?>
<svg id="Layer_1" xmlns="http://www.w3.org/2000/svg" version="1.1" viewBox="0 0 250 250">
  <!-- Generator: Adobe Illustrator 30.1.0, SVG Export Plug-In . SVG Version: 2.1.1 Build 136)  -->
  <defs>
    <style>
      .st0 {
        fill: #010101;
      }
    </style>
  </defs>
  <path class="st0" d="M218.52,165.51c-.83-1.35-1.77-2.82-2.77-4.37-5.49-8.54-13.02-20.24-12.88-30.42.24-17.47-4.59-34.5-13.96-49.22-7.72-12.49-19.06-22.19-32.83-28.13-6.4-13.47-20.13-22.8-36-22.8s-30.36,9.86-36.51,23.93c-15.08,6.48-27.24,16.21-35.2,28.23-9.42,14.22-12.72,30.87-9.79,49.48,2.83,18.08,12.43,38.36,28.53,60.28l-.35,51.16c0,.77.3,1.51.84,2.06.54.55,1.28.86,2.06.86h90.05c1.6,0,2.9-1.3,2.9-2.9v-16.36c9.6.2,24.84-3.58,30.15-8.78,2.09-2.05,2.37-4,2.22-5.3l-2.37-30.58c3.89-.52,7.08-.58,9.96-.64,3.43-.07,6.4-.13,9.37-.96,5.05-1.41,7.08-4.16,7.89-6.23,1.12-2.84.66-6.16-1.29-9.32h0ZM162.09,101.6c2.62,4.32,4.56,8.99,5.76,13.88.32,1.3,1.48,2.21,2.82,2.21h6.03c.78,0,1.42.64,1.42,1.42v16.04c0,.78-.64,1.41-1.42,1.41h-6.03c-1.34,0-2.5.91-2.82,2.21-1.2,4.9-3.14,9.58-5.76,13.9-.69,1.14-.52,2.61.43,3.56l4.27,4.27c.55.55.55,1.47,0,2.01l-11.34,11.34c-.36.36-.78.41-1,.41s-.64-.05-1-.41l-4.28-4.28c-.95-.95-2.42-1.12-3.56-.42-4.32,2.64-8.99,4.57-13.87,5.75-1.3.31-2.22,1.48-2.22,2.82v6.04c0,.78-.64,1.41-1.42,1.41h-16.03c-.78,0-1.42-.63-1.42-1.41v-6.04c0-1.34-.92-2.5-2.22-2.82-4.88-1.18-9.55-3.12-13.87-5.75-1.14-.7-2.61-.52-3.56.42l-4.28,4.28c-.55.55-1.45.55-2,0l-11.35-11.34c-.55-.55-.55-1.47,0-2.01l4.28-4.27c.95-.95,1.13-2.42.43-3.57-2.64-4.31-4.57-8.98-5.75-13.88-.31-1.3-1.48-2.22-2.82-2.22h-6.03c-.78,0-1.42-.63-1.42-1.41v-16.04c0-.78.64-1.42,1.42-1.42h6.03c1.34,0,2.5-.92,2.82-2.22,1.18-4.89,3.12-9.56,5.76-13.87.7-1.14.52-2.62-.43-3.57l-4.28-4.26c-.55-.55-.55-1.47,0-2.01l8.88-8.87c1.01,3.05,2.38,5.99,4.11,8.74.92,1.46,1.81,2.84,2.66,4.16,2,3.11,3.78,5.88,5.36,8.65-5.55,6.27-8.59,14.24-8.59,22.68,0,18.91,15.39,34.3,34.3,34.3s34.3-15.39,34.3-34.3c0-8.44-3.04-16.41-8.6-22.69,1.56-2.72,3.31-5.45,5.27-8.51.88-1.36,1.79-2.79,2.74-4.3,1.73-2.75,3.11-5.68,4.12-8.74l8.87,8.87c.55.55.55,1.47,0,2.01l-4.27,4.27c-.95.95-1.12,2.41-.43,3.56h0ZM98.16,112.13v8.36c0,3.34,2.08,6.2,5.02,7.36v6.59c0,4.37,3.56,7.92,7.93,7.92h17.94c4.37,0,7.92-3.55,7.92-7.92v-6.59c2.94-1.16,5.03-4.02,5.03-7.36v-8.37c.29-.71.58-1.4.89-2.08,3.69,4.9,5.69,10.84,5.69,17.07,0,15.71-12.78,28.5-28.5,28.5s-28.5-12.78-28.5-28.5c0-6.24,2-12.17,5.69-17.07.31.68.6,1.37.89,2.08h0ZM131.17,128.41v6.03c0,1.17-.95,2.12-2.12,2.12h-17.94c-1.16,0-2.13-.97-2.13-2.12v-6.03h22.19ZM136.21,120.49c0,1.15-.98,2.12-2.13,2.12h-27.99c-1.17,0-2.12-.95-2.12-2.12v-6.03h32.24v6.03ZM120.09,36.37c18.77,0,34.04,15.27,34.04,34.04,0,6.44-1.81,12.71-5.23,18.13-.94,1.5-1.85,2.91-2.72,4.26-3.65,5.68-6.6,10.29-9.01,15.87h-34.17c-2.43-5.62-5.41-10.27-9.1-16-.84-1.31-1.72-2.68-2.63-4.12-3.41-5.43-5.22-11.7-5.22-18.14,0-18.77,15.27-34.04,34.04-34.04h0ZM214.41,172.72c-.59,1.52-2.53,2.34-4.05,2.76-2.26.63-4.76.68-7.93.74-3.51.07-7.89.16-13.44,1.12-1.47.26-2.51,1.59-2.4,3.08l2.58,33.33s0,.02,0,.03c-.38.88-3.56,3.35-11.08,5.5-6.63,1.9-13.69,2.7-17.98,2.04-.84-.13-1.69.12-2.33.67-.64.55-1.01,1.35-1.01,2.2v16.59h-84.23l.34-49.21c0-.63-.2-1.24-.57-1.74-15.88-21.46-25.32-41.15-28.03-58.51-6.42-40.83,20.16-60.9,36.84-69.3-.58,2.71-.9,5.51-.9,8.39,0,1.97.15,3.93.43,5.86-.03.03-.05.05-.08.08l-11.33,11.32c-2.81,2.82-2.81,7.4,0,10.22l2.7,2.69c-1.99,3.59-3.57,7.39-4.7,11.33h-3.8c-3.98,0-7.22,3.24-7.22,7.22v16.04c0,3.97,3.24,7.21,7.22,7.21h3.8c1.13,3.95,2.71,7.74,4.7,11.34l-2.7,2.69c-2.82,2.82-2.81,7.4,0,10.21l11.35,11.34c2.81,2.81,7.39,2.81,10.2,0l2.7-2.7c3.6,2,7.39,3.57,11.33,4.7v3.81c0,3.97,3.24,7.21,7.22,7.21h16.03c3.98,0,7.22-3.23,7.22-7.21v-3.81c3.94-1.13,7.73-2.7,11.33-4.7l2.7,2.7c2.81,2.81,7.39,2.81,10.2,0l11.34-11.34c2.82-2.82,2.82-7.4,0-10.21l-2.69-2.69c1.99-3.6,3.56-7.4,4.7-11.34h3.8c3.98,0,7.22-3.23,7.22-7.21v-16.04c0-3.98-3.24-7.22-7.22-7.22h-3.8c-1.14-3.94-2.71-7.73-4.7-11.33l2.69-2.69c2.81-2.82,2.81-7.4,0-10.21l-11.32-11.32s-.06-.05-.08-.08c.29-1.93.43-3.89.43-5.86,0-3.2-.39-6.31-1.11-9.3,10.41,5.52,19.04,13.53,25.19,23.47,8.78,13.79,13.3,29.72,13.07,46.06-.16,11.92,7.91,24.47,13.8,33.63.98,1.53,1.91,2.97,2.71,4.27.56.92,1.42,2.67.83,4.17h0ZM160.02,43.59c-.8-1.39-.33-3.16,1.06-3.96l9.79-5.66c1.39-.8,3.16-.33,3.96,1.06.8,1.39.33,3.16-1.06,3.96l-9.79,5.66c-.46.26-.96.39-1.45.39-1,0-1.98-.52-2.51-1.45h0ZM142.08,22.75l5.65-9.79c.8-1.39,2.57-1.86,3.96-1.06,1.39.8,1.86,2.57,1.06,3.96l-5.65,9.79c-.54.93-1.51,1.45-2.51,1.45-.49,0-.99-.12-1.45-.39-1.39-.8-1.86-2.57-1.06-3.96h0ZM117.19,17.63V6.32c0-1.6,1.3-2.9,2.9-2.9s2.9,1.3,2.9,2.9v11.31c0,1.6-1.3,2.9-2.9,2.9s-2.9-1.3-2.9-2.9ZM87.42,15.85c-.8-1.39-.32-3.16,1.06-3.96,1.39-.8,3.16-.32,3.96,1.06l5.65,9.79c.8,1.39.32,3.16-1.06,3.96-.46.26-.95.39-1.45.39-1,0-1.98-.52-2.51-1.45l-5.65-9.79ZM65.34,35.03c.8-1.39,2.57-1.86,3.96-1.06l9.79,5.66c1.39.8,1.86,2.57,1.06,3.96-.54.93-1.51,1.45-2.51,1.45-.49,0-.99-.13-1.45-.39l-9.79-5.66c-1.39-.8-1.86-2.57-1.06-3.96h0ZM97.61,66.97l10.2,8.44-3.28,12.84c-.29,1.15.14,2.36,1.1,3.06.51.37,1.1.55,1.7.55.54,0,1.08-.15,1.55-.45l11.19-7.09,11.19,7.09c1,.63,2.29.59,3.25-.1.96-.7,1.4-1.91,1.1-3.06l-3.28-12.84,10.2-8.44c.91-.76,1.28-2,.91-3.13-.37-1.13-1.39-1.92-2.57-2l-13.22-.85-4.89-12.31c-.44-1.1-1.51-1.83-2.69-1.83s-2.26.72-2.69,1.83l-4.89,12.31-13.23.85c-1.19.08-2.2.87-2.57,2-.37,1.13,0,2.37.91,3.13h0ZM114.71,66.66c1.12-.07,2.09-.78,2.51-1.82l2.87-7.23,2.87,7.23c.41,1.04,1.39,1.75,2.51,1.82l7.77.5-5.99,4.96c-.86.71-1.24,1.86-.96,2.95l1.93,7.55-6.58-4.17c-.95-.6-2.15-.6-3.1,0l-6.58,4.17,1.93-7.55c.28-1.09-.1-2.24-.96-2.95l-5.99-4.96,7.77-.5h0Z"/>
</svg>