<?xml version="1.0" encoding="UTF-8"?>
<svg id="Layer_1" xmlns="http://www.w3.org/2000/svg" version="1.1" viewBox="0 0 250 250">
  <!-- Generator: Adobe Illustrator 30.1.0, SVG Export Plug-In . SVG Version: 2.1.1 Build 136)  -->
  <defs>
    <style>
      .st0 {
        fill: #010101;
      }
    </style>
  </defs>
  <path class="st0" d="M237.48,113.6c-2.5-1.7-5.54-2.04-8.39-.94l-45.84,18.12v-16.82c0-10.09-8.21-18.29-18.29-18.29h-16.41c9.94-7.08,16.44-18.7,16.44-31.8,0-2.76-.29-5.51-.87-8.19-.42-1.96-2.34-3.2-4.3-2.79-1.96.42-3.2,2.34-2.79,4.3.47,2.18.7,4.43.7,6.68,0,17.54-14.27,31.8-31.8,31.8-16.12,0-29.47-12.06-31.52-27.63-.04-.92-.13-1.83-.24-2.74-.02-.48-.04-.95-.04-1.43,0-17.53,14.27-31.79,31.8-31.79,11.18,0,21.66,5.97,27.37,15.59,1.02,1.72,3.24,2.29,4.96,1.27,1.72-1.02,2.29-3.24,1.27-4.96-7-11.81-19.87-19.14-33.59-19.14-17.13,0-31.71,11.1-36.96,26.47-5.96-9.05-16.22-15.05-27.85-15.05-18.38,0-33.33,14.95-33.33,33.32,0,10.56,4.94,19.98,12.62,26.09h-12.59c-10.09,0-18.3,8.21-18.3,18.3v66.31c0,2,1.62,3.62,3.62,3.62s3.62-1.62,3.62-3.62v-66.31c0-6.1,4.96-11.06,11.06-11.06h137.13c6.1,0,11.06,4.96,11.06,11.06v93.14c0,6.1-4.96,11.06-11.06,11.06H27.83c-6.1,0-11.06-4.96-11.06-11.06v-15.52c0-2-1.62-3.62-3.62-3.62s-3.62,1.62-3.62,3.62v15.52c0,10.09,8.21,18.29,18.29,18.29h137.13c10.09,0,18.29-8.21,18.29-18.29v-16.82l45.83,18.12c1.09.43,2.21.64,3.33.64,1.76,0,3.51-.53,5.05-1.57,2.51-1.71,3.94-4.42,3.94-7.46v-78.97c0-3.05-1.44-5.77-3.94-7.45h0ZM35.05,69.57c0-14.38,11.7-26.07,26.09-26.07,13.12,0,24,9.73,25.82,22.35.05.92.14,1.83.24,2.74.01.33.03.66.03.99,0,14.38-11.7,26.09-26.09,26.09s-26.09-11.7-26.09-26.09h0ZM81.84,95.66c4.29-3.41,7.73-7.86,9.92-12.96,2.84,5.14,6.82,9.57,11.57,12.96h-21.5ZM234.18,200.01c0,.65-.24,1.11-.76,1.46-.55.37-1.06.43-1.67.19l-48.5-19.18v-43.92l48.48-19.17c.62-.24,1.13-.19,1.69.19.52.35.76.81.76,1.45v78.97h0ZM56.18,145.69s-.01.04-.02.05c0,0,0,.02,0,.02,0,0-.03.01-.05.02l-7.14,2.31c-3.03,1-5.07,3.8-5.07,7v10.89c0,3.19,2.04,6,5.09,7l7.11,2.31s.08.03.08.03c0,0,0,.02.02.04.37,1.02.79,2.05,1.29,3.12.01.04.02.05.02.06,0,0,0,.02-.02.05l-3.4,6.67c-1.46,2.84-.92,6.27,1.35,8.57l7.69,7.67c2.26,2.29,5.71,2.84,8.56,1.36l6.67-3.4s.05-.02.06-.03c0,0,.03,0,.07.02,1,.47,2.05.91,3.09,1.3.03.01.05.02.06.02,0,0,0,.03.02.05l2.32,7.11c.97,3.05,3.79,5.1,7.01,5.1h10.87c3.22,0,6.03-2.05,7-5.08l2.33-7.15s0-.02,0-.03c.01,0,.04-.01.07-.03,1.05-.39,2.1-.83,3.08-1.29.05-.02.08-.03.08-.03,0,0,.03,0,.05.02l6.66,3.39c2.85,1.48,6.29.94,8.56-1.34l7.69-7.69c2.26-2.26,2.8-5.69,1.36-8.56l-3.41-6.68s-.03-.06-.03-.03l-3.54-.76,3.56.71c.45-.96.87-1.99,1.29-3.13,0-.03.02-.05.02-.05,0,0,.03-.02.07-.03l7.14-2.31c3.03-1,5.07-3.8,5.07-7v-10.89c0-3.19-2.04-6-5.09-7l-7.11-2.31s-.07-.03-.07-.03c0,0-.02-.03-.03-.07-.43-1.16-.86-2.18-1.29-3.11,0-.02-.01-.03-.02-.04,0-.01.01-.03.03-.05l3.4-6.69c1.45-2.85.9-6.28-1.36-8.54l-7.69-7.69c-2.26-2.26-5.69-2.81-8.54-1.36l-6.7,3.41s-.04.02-.04.02c-.01,0-.04-.01-.08-.03-1.08-.48-2.08-.9-3.08-1.27,0,0,0,0-.02,0-.02,0-.04-.02-.05-.02,0,0-.01-.03-.02-.05l-2.32-7.12c-.97-3.05-3.79-5.1-7.01-5.1h-10.87c-3.22,0-6.03,2.05-7,5.08l-2.33,7.15s-.01.03-.01.04c0,0-.03.01-.05.03-1.01.37-2.06.81-3.13,1.3-.02,0-.04.02-.04.02-.01,0-.03-.01-.06-.03l-6.68-3.4c-2.86-1.46-6.3-.91-8.54,1.36l-7.72,7.71c-2.26,2.28-2.79,5.72-1.33,8.53l3.41,6.7s.01.03.02.04c0,0,0,.03-.01.05-.47,1.01-.91,2.05-1.3,3.1ZM58.35,152.67c2.2-.72,3.84-2.31,4.62-4.47.32-.87.68-1.73,1.09-2.6.95-2.1.9-4.38-.14-6.4l-3.41-6.71s-.03-.06.02-.11l7.72-7.71s.05-.05.12-.01l6.68,3.41c2.07,1.05,4.35,1.09,6.42.13.88-.41,1.76-.77,2.6-1.08,2.16-.81,3.74-2.45,4.44-4.62l2.33-7.16s.02-.05.02-.05c0,0,.03-.01.09-.01h10.87c.05,0,.08,0,.09.01,0,0,.01.01.03.07l2.32,7.13c.71,2.19,2.28,3.83,4.44,4.63.84.31,1.69.67,2.59,1.07,2.09.97,4.38.93,6.43-.12l6.69-3.4c.06-.03.07-.04.14.03l7.69,7.69c.06.06.06.08.03.14l-3.4,6.68c-1.06,2.06-1.1,4.34-.12,6.44.35.76.71,1.61,1.06,2.57.79,2.16,2.44,3.74,4.64,4.47l7.12,2.31c.09.03.09.05.09.12v10.89c0,.07,0,.09-.08.11l-7.14,2.31c-2.18.72-3.83,2.3-4.62,4.45-.35.96-.7,1.81-1.06,2.58-.98,2.09-.94,4.38.11,6.44l3.4,6.66c.05.1.03.11-.02.16l-7.69,7.69s-.06.05-.06.05c0,0-.02,0-.08-.03l-6.68-3.41c-2.04-1.03-4.31-1.08-6.44-.12-.85.39-1.72.76-2.57,1.08-2.18.8-3.76,2.45-4.45,4.62l-2.33,7.15s-.02.05-.02.05c0,0-.03.01-.09.01h-10.87c-.05,0-.08,0-.09-.01,0,0-.01-.01-.03-.07l-2.31-7.1c-.7-2.19-2.27-3.84-4.46-4.65-.87-.32-1.73-.68-2.55-1.07-.02,0-.04-.02-.05-.03-1-.45-2.03-.67-3.07-.67-1.14,0-2.27.27-3.34.82l-6.7,3.41s-.05.02-.06.02c0,0-.02,0-.06-.05l-7.69-7.67c-.07-.08-.06-.1-.03-.16l3.4-6.67c1.05-2.04,1.09-4.32.12-6.44-.42-.89-.76-1.73-1.05-2.55,0-.02-.01-.03-.02-.05-.8-2.14-2.44-3.71-4.64-4.44l-7.12-2.31c-.09-.03-.09-.05-.09-.12v-10.89c0-.07,0-.09.08-.11l7.16-2.31ZM96.39,190.8c16.69,0,30.26-13.57,30.26-30.26s-13.57-30.26-30.26-30.26-30.26,13.57-30.26,30.26,13.57,30.26,30.26,30.26ZM96.39,137.52c12.7,0,23.02,10.33,23.02,23.02s-10.33,23.02-23.02,23.02-23.02-10.33-23.02-23.02,10.32-23.02,23.02-23.02ZM89.06,174.34c1.02.59,2.15.88,3.27.88s2.25-.29,3.28-.89l14.07-8.12s.02,0,.03-.02c2.04-1.2,3.26-3.32,3.26-5.67s-1.23-4.51-3.29-5.69l-14.08-8.13c-2.05-1.18-4.5-1.18-6.55,0-2.06,1.19-3.29,3.32-3.29,5.69v16.24c0,2.38,1.23,4.51,3.29,5.7h0ZM93.01,153.58l12.05,6.96-12.05,6.95v-13.91ZM61.14,55.12c-7.98,0-14.47,6.49-14.47,14.46s6.49,14.47,14.47,14.47,14.47-6.49,14.47-14.47c0-7.98-6.49-14.46-14.47-14.46ZM61.14,76.8c-3.99,0-7.23-3.24-7.23-7.23s3.24-7.21,7.23-7.21,7.23,3.24,7.23,7.21-3.24,7.23-7.23,7.23ZM109.39,63.86c0,9.13,7.42,16.56,16.55,16.56s16.55-7.43,16.55-16.56-7.42-16.55-16.55-16.55-16.55,7.42-16.55,16.55ZM135.25,63.86c0,5.14-4.18,9.32-9.31,9.32s-9.31-4.18-9.31-9.32,4.18-9.31,9.31-9.31,9.31,4.18,9.31,9.31Z"/>
</svg>