<?xml version="1.0" encoding="UTF-8"?>
<svg id="Layer_1" xmlns="http://www.w3.org/2000/svg" version="1.1" viewBox="0 0 250 250">
  <!-- Generator: Adobe Illustrator 30.1.0, SVG Export Plug-In . SVG Version: 2.1.1 Build 136)  -->
  <defs>
    <style>
      .st0 {
        fill: #010101;
      }
    </style>
  </defs>
  <g id="g2511">
    <g id="g2513">
      <g id="path2515">
        <path class="st0" d="M152.23,205.02h-52.88c-1.89,0-3.42-1.53-3.42-3.42s1.53-3.42,3.42-3.42h52.88c1.89,0,3.42,1.53,3.42,3.42s-1.53,3.42-3.42,3.42Z"/>
      </g>
    </g>
    <g id="g2517">
      <g id="g2519">
        <g id="g2525">
          <g id="path2527">
            <path class="st0" d="M26.1,146.97c-1.89,0-3.42-1.53-3.42-3.42v-74.67c0-6.3,5.12-11.42,11.42-11.42h26.08c1.89,0,3.42,1.53,3.42,3.42s-1.53,3.42-3.42,3.42h-26.08c-2.52,0-4.57,2.05-4.57,4.57v74.67c0,1.89-1.53,3.42-3.42,3.42Z"/>
          </g>
        </g>
        <g id="g2529">
          <g id="path2531">
            <path class="st0" d="M224.86,146.64c-1.89,0-3.42-1.53-3.42-3.42v-74.34c0-2.52-2.05-4.57-4.57-4.57h-26.48c-1.89,0-3.42-1.53-3.42-3.42s1.53-3.42,3.42-3.42h26.48c6.3,0,11.42,5.12,11.42,11.42v74.34c0,1.89-1.53,3.42-3.42,3.42Z"/>
          </g>
        </g>
        <g id="g2533">
          <g id="path2535">
            <path class="st0" d="M125.48,158.83c-.92,0-1.83-.36-2.5-1.09l-34.59-37.02c-.87-.94-2.06-1.45-3.34-1.45-1.28,0-2.47.52-3.34,1.45l-23.2,24.83c-1.29,1.38-3.46,1.46-4.84.16-1.38-1.29-1.46-3.46-.16-4.84l23.2-24.83c2.15-2.3,5.19-3.62,8.35-3.62,3.15,0,6.19,1.32,8.35,3.62l34.59,37.02c1.29,1.38,1.22,3.55-.16,4.84-.66.62-1.5.92-2.34.92Z"/>
          </g>
        </g>
        <g id="g2537">
          <g id="path2539">
            <path class="st0" d="M98.73,187.46c-.84,0-1.68-.31-2.34-.92-1.38-1.29-1.46-3.46-.16-4.84l61.34-65.65c2.15-2.3,5.19-3.62,8.34-3.62,3.15,0,6.2,1.32,8.35,3.62l37.69,40.34c1.29,1.38,1.22,3.55-.16,4.84-1.38,1.29-3.55,1.22-4.84-.16l-37.69-40.34c-.87-.94-2.06-1.45-3.34-1.45-1.28,0-2.47.52-3.34,1.45l-61.34,65.65c-.67.72-1.59,1.09-2.5,1.09Z"/>
          </g>
        </g>
        <g id="g2541">
          <g id="path2543">
            <path class="st0" d="M125.48,84.19c-12.86,0-23.32-10.46-23.32-23.32s10.46-23.32,23.32-23.32,23.32,10.46,23.32,23.32-10.46,23.32-23.32,23.32ZM125.48,44.4c-9.08,0-16.47,7.39-16.47,16.47s7.39,16.47,16.47,16.47,16.47-7.39,16.47-16.47-7.39-16.47-16.47-16.47Z"/>
          </g>
        </g>
        <g id="g2545">
          <g id="path2547">
            <path class="st0" d="M128.62,113.54h-6.29c-2.21,0-4.22-1.39-5.01-3.46l-4.04-10.71c-2.2-.7-4.35-1.59-6.4-2.65l-10.43,4.71c-2.02.91-4.42.47-5.99-1.09l-4.45-4.45c-1.56-1.56-2-3.97-1.09-5.99l4.71-10.43c-1.06-2.05-1.95-4.2-2.65-6.4l-10.71-4.04c-2.07-.78-3.46-2.79-3.46-5.01v-6.29c0-2.21,1.39-4.22,3.46-5.01l10.71-4.04c.7-2.2,1.59-4.35,2.65-6.4l-4.71-10.43c-.91-2.02-.47-4.42,1.09-5.99l4.45-4.45c1.56-1.56,3.97-2,5.99-1.09l10.43,4.71c2.05-1.06,4.2-1.95,6.4-2.65l4.04-10.71c.78-2.07,2.79-3.46,5.01-3.46h6.29c2.21,0,4.22,1.39,5.01,3.46l4.04,10.71c2.2.7,4.35,1.59,6.4,2.65l10.43-4.71c2.02-.91,4.42-.47,5.99,1.09l4.45,4.45c1.57,1.57,2,3.97,1.09,5.99l-4.71,10.43c1.06,2.05,1.95,4.2,2.65,6.4l10.71,4.04c2.07.78,3.46,2.79,3.46,5.01v6.29c0,2.21-1.39,4.22-3.46,5.01l-10.71,4.04c-.7,2.2-1.59,4.35-2.65,6.4l4.71,10.43c.91,2.02.47,4.42-1.09,5.99l-4.45,4.45c-1.57,1.56-3.97,2-5.99,1.09l-10.43-4.71c-2.05,1.06-4.2,1.95-6.4,2.65l-4.04,10.71c-.78,2.07-2.79,3.46-5.01,3.46ZM123.37,106.69h4.22l3.94-10.43c.59-1.56,1.9-2.77,3.51-3.25,2.23-.66,4.39-1.56,6.43-2.66,1.47-.8,3.24-.86,4.74-.19l10.18,4.6,2.98-2.98-4.6-10.18c-.68-1.51-.61-3.28.19-4.74,1.11-2.04,2-4.2,2.66-6.43.48-1.61,1.69-2.92,3.25-3.51l10.43-3.94v-4.22l-10.43-3.94c-1.56-.59-2.77-1.9-3.25-3.51-.66-2.23-1.56-4.39-2.66-6.42-.8-1.47-.87-3.24-.19-4.74l4.6-10.18-2.98-2.98-10.18,4.6c-1.51.68-3.28.61-4.74-.18-2.04-1.11-4.2-2-6.43-2.66-1.61-.48-2.92-1.69-3.51-3.25l-3.94-10.43h-4.22l-3.94,10.43c-.59,1.56-1.9,2.77-3.51,3.25-2.23.66-4.39,1.56-6.43,2.66-1.46.8-3.24.87-4.74.18l-10.18-4.6-2.98,2.98,4.6,10.18c.68,1.51.61,3.28-.18,4.74-1.11,2.04-2.01,4.2-2.67,6.43-.48,1.61-1.69,2.92-3.25,3.51l-10.43,3.94v4.22l10.43,3.94c1.56.59,2.77,1.9,3.25,3.51.66,2.23,1.56,4.39,2.66,6.43.8,1.47.87,3.24.19,4.74l-4.6,10.18,2.98,2.98,10.18-4.6c1.51-.68,3.28-.61,4.74.19,2.04,1.11,4.2,2,6.43,2.66,1.61.48,2.92,1.69,3.51,3.25l3.94,10.43Z"/>
          </g>
        </g>
        <g id="g2549">
          <g id="path2551">
            <path class="st0" d="M229.82,242.01h-68.46c-6.92,0-12.56-5.63-12.56-12.56v-61.61c0-6.92,5.63-12.56,12.56-12.56h68.46c6.92,0,12.56,5.63,12.56,12.56v9.56c0,1.89-1.53,3.42-3.42,3.42s-3.42-1.53-3.42-3.42v-9.56c0-3.15-2.56-5.71-5.71-5.71h-68.46c-3.15,0-5.71,2.56-5.71,5.71v61.61c0,3.15,2.56,5.71,5.71,5.71h68.46c3.15,0,5.71-2.56,5.71-5.71v-33.91c0-1.89,1.53-3.42,3.42-3.42s3.42,1.53,3.42,3.42v33.91c0,6.92-5.63,12.56-12.56,12.56Z"/>
          </g>
        </g>
        <g id="g2553">
          <g id="path2555">
            <path class="st0" d="M89.6,242.01H21.14c-6.92,0-12.56-5.63-12.56-12.56v-61.61c0-6.92,5.63-12.56,12.56-12.56h68.46c6.92,0,12.56,5.63,12.56,12.56v61.61c0,6.92-5.63,12.56-12.56,12.56ZM21.14,162.14c-3.15,0-5.71,2.56-5.71,5.71v61.61c0,3.15,2.56,5.71,5.71,5.71h68.46c3.15,0,5.71-2.56,5.71-5.71v-61.61c0-3.15-2.56-5.71-5.71-5.71H21.14Z"/>
          </g>
        </g>
        <g id="g2557">
          <g id="path2559">
            <path class="st0" d="M181.57,220.74c-.99,0-1.99-.26-2.89-.79-1.77-1.04-2.82-2.88-2.82-4.92v-32.74c0-2.05,1.05-3.89,2.82-4.92,1.76-1.04,3.89-1.06,5.67-.06l29.29,16.37c1.8,1.01,2.92,2.92,2.92,4.98s-1.12,3.98-2.92,4.98l-29.29,16.37s0,0,0,0c-.87.49-1.83.73-2.79.73ZM182.69,217.02h0,0ZM182.71,184.23v28.85l25.81-14.42-25.81-14.42Z"/>
          </g>
        </g>
        <g id="g2561">
          <g id="path2563">
            <path class="st0" d="M79.22,185.6H31.51c-1.89,0-3.42-1.53-3.42-3.42s1.53-3.42,3.42-3.42h47.7c1.89,0,3.42,1.53,3.42,3.42s-1.53,3.42-3.42,3.42Z"/>
          </g>
        </g>
        <g id="g2565">
          <g id="path2567">
            <path class="st0" d="M79.22,202.08H31.51c-1.89,0-3.42-1.53-3.42-3.42s1.53-3.42,3.42-3.42h47.7c1.89,0,3.42,1.53,3.42,3.42s-1.53,3.42-3.42,3.42Z"/>
          </g>
        </g>
        <g id="g2569">
          <g id="path2571">
            <path class="st0" d="M79.22,218.56H31.51c-1.89,0-3.42-1.53-3.42-3.42s1.53-3.42,3.42-3.42h47.7c1.89,0,3.42,1.53,3.42,3.42s-1.53,3.42-3.42,3.42Z"/>
          </g>
        </g>
      </g>
    </g>
  </g>
</svg>