<?xml version="1.0" encoding="UTF-8"?>
<svg id="Layer_1" xmlns="http://www.w3.org/2000/svg" version="1.1" xmlns:xlink="http://www.w3.org/1999/xlink" viewBox="0 0 250 250">
  <!-- Generator: Adobe Illustrator 30.1.0, SVG Export Plug-In . SVG Version: 2.1.1 Build 136)  -->
  <defs>
    <style>
      .st0 {
        fill: none;
      }

      .st1 {
        fill: #010101;
      }

      .st2 {
        clip-path: url(#clippath);
      }
    </style>
    <clipPath id="clippath">
      <rect class="st0" x="8.58" y="8.21" width="233.8" height="233.8"/>
    </clipPath>
  </defs>
  <g id="g2070">
    <g id="g2072">
      <g class="st2">
        <g id="g2074">
          <g id="g2080">
            <g id="path2082">
              <path class="st1" d="M17.88,97.3c-.44,0-.88-.06-1.32-.19-2.42-.73-3.78-3.27-3.06-5.69.41-1.36.85-2.73,1.31-4.08.82-2.39,3.41-3.66,5.8-2.85,2.39.82,3.66,3.41,2.85,5.8-.42,1.24-.83,2.5-1.2,3.75-.59,1.98-2.41,3.25-4.37,3.25Z"/>
            </g>
          </g>
          <g id="g2084">
            <g id="path2086">
              <path class="st1" d="M31.32,68.38c-.86,0-1.72-.24-2.49-.74-2.11-1.38-2.71-4.21-1.33-6.32,1.48-2.27,3.06-4.51,4.69-6.67,1.52-2.01,4.39-2.41,6.4-.89,2.01,1.52,2.41,4.39.89,6.4-1.51,1.99-2.96,4.06-4.33,6.15-.88,1.34-2.34,2.07-3.83,2.07ZM219.03,67.47c-1.48,0-2.92-.71-3.8-2.04-1.38-2.08-2.86-4.13-4.39-6.11-1.54-2-1.17-4.86.82-6.41,2-1.54,4.86-1.17,6.41.82,1.66,2.15,3.26,4.37,4.76,6.63,1.4,2.1.83,4.93-1.27,6.33-.78.52-1.66.77-2.53.77ZM55.22,42.02c-1.34,0-2.66-.58-3.56-1.71-1.58-1.97-1.26-4.84.7-6.42,2.11-1.7,4.31-3.34,6.53-4.88,2.07-1.44,4.92-.92,6.36,1.15,1.44,2.07.92,4.92-1.15,6.36-2.05,1.42-4.08,2.94-6.03,4.5-.84.68-1.85,1.01-2.86,1.01ZM194.88,41.34c-.99,0-1.98-.32-2.82-.98-1.96-1.54-4.01-3.04-6.07-4.44-2.09-1.42-2.63-4.26-1.21-6.34,1.42-2.09,4.26-2.63,6.34-1.21,2.24,1.52,4.45,3.14,6.58,4.82,1.98,1.56,2.32,4.43.77,6.41-.9,1.15-2.24,1.74-3.59,1.74ZM86.14,24.43c-1.85,0-3.59-1.13-4.28-2.97-.88-2.36.32-4.99,2.68-5.88,2.54-.95,5.14-1.82,7.74-2.59,2.42-.72,4.96.67,5.67,3.08.72,2.42-.67,4.96-3.08,5.67-2.39.71-4.79,1.51-7.13,2.38-.53.2-1.07.29-1.6.29ZM163.79,24.05c-.52,0-1.04-.09-1.56-.27-2.35-.85-4.75-1.63-7.15-2.31-2.43-.69-3.83-3.22-3.14-5.64.69-2.43,3.22-3.83,5.64-3.14,2.6.74,5.22,1.59,7.76,2.51,2.37.86,3.6,3.48,2.74,5.85-.67,1.86-2.43,3.01-4.29,3.01ZM121,17.43c-2.44,0-4.46-1.93-4.56-4.39-.1-2.52,1.86-4.64,4.38-4.74,2.7-.11,5.45-.12,8.15-.04,2.52.07,4.5,2.18,4.43,4.7-.07,2.52-2.19,4.51-4.7,4.43-2.49-.07-5.04-.06-7.53.04-.06,0-.12,0-.18,0Z"/>
            </g>
          </g>
          <g id="g2088">
            <g id="path2090">
              <path class="st1" d="M232.76,96.28c-1.95,0-3.75-1.25-4.36-3.21-.39-1.25-.81-2.51-1.24-3.74-.84-2.38.41-4.99,2.79-5.82,2.38-.84,4.99.41,5.82,2.79.47,1.34.92,2.71,1.35,4.06.75,2.41-.6,4.97-3,5.72-.45.14-.91.21-1.36.21Z"/>
            </g>
          </g>
          <g id="g2092">
            <g id="path2094">
              <path class="st1" d="M19.14,165.98c-1.9,0-3.67-1.19-4.32-3.09-.46-1.34-.9-2.72-1.31-4.08-.73-2.42.64-4.96,3.06-5.69,2.42-.72,4.96.64,5.69,3.06.38,1.25.78,2.51,1.2,3.75.82,2.39-.46,4.98-2.85,5.8-.49.17-.99.25-1.48.25Z"/>
            </g>
          </g>
          <g id="g2096">
            <g id="path2098">
              <path class="st1" d="M125.45,242.02c-1.53,0-3.09-.03-4.63-.09-2.52-.1-4.48-2.22-4.38-4.74.1-2.52,2.22-4.48,4.74-4.38,1.43.06,2.89.08,4.29.08,1.07,0,2.16-.02,3.23-.05,2.53-.07,4.62,1.91,4.7,4.43.07,2.52-1.91,4.62-4.43,4.7-1.16.03-2.34.05-3.5.05h-.03ZM156.33,237.73c-1.99,0-3.82-1.31-4.39-3.32-.69-2.43.71-4.95,3.14-5.64,2.4-.68,4.81-1.46,7.15-2.31,2.37-.86,4.99.36,5.85,2.74.86,2.37-.36,4.99-2.74,5.85-2.55.92-5.16,1.77-7.76,2.51-.42.12-.84.18-1.25.18ZM93.57,237.42c-.43,0-.87-.06-1.3-.19-2.6-.77-5.2-1.64-7.74-2.59-2.36-.88-3.56-3.51-2.68-5.88.88-2.36,3.51-3.56,5.88-2.68,2.34.87,4.73,1.68,7.13,2.38,2.42.72,3.8,3.26,3.08,5.67-.59,1.99-2.41,3.27-4.38,3.27ZM188.56,222.65c-1.46,0-2.9-.7-3.78-2-1.42-2.09-.88-4.93,1.21-6.34,2.07-1.4,4.11-2.9,6.07-4.44,1.98-1.56,4.85-1.22,6.41.76,1.56,1.98,1.22,4.85-.76,6.41-2.13,1.67-4.34,3.3-6.58,4.82-.79.53-1.68.79-2.56.79ZM61.5,222.03c-.9,0-1.81-.26-2.6-.82-2.22-1.54-4.42-3.19-6.53-4.88-1.97-1.58-2.28-4.45-.7-6.42,1.58-1.97,4.45-2.28,6.42-.7,1.95,1.56,3.98,3.08,6.03,4.5,2.07,1.44,2.59,4.28,1.15,6.36-.89,1.28-2.31,1.96-3.76,1.96ZM214.45,198.27c-.97,0-1.96-.31-2.79-.95-2-1.54-2.37-4.41-.82-6.4,1.53-1.98,3-4.03,4.39-6.11,1.4-2.1,4.23-2.67,6.33-1.27,2.1,1.4,2.67,4.23,1.27,6.33-1.5,2.25-3.1,4.48-4.76,6.63-.9,1.17-2.25,1.78-3.62,1.78ZM35.84,197.4c-1.38,0-2.75-.62-3.64-1.81-1.63-2.16-3.21-4.41-4.69-6.67-1.38-2.11-.78-4.94,1.33-6.32,2.11-1.38,4.94-.78,6.32,1.33,1.36,2.09,2.82,4.16,4.33,6.15,1.52,2.01,1.12,4.88-.89,6.4-.82.62-1.79.93-2.75.93Z"/>
            </g>
          </g>
          <g id="g2100">
            <g id="path2102">
              <path class="st1" d="M231.47,166.99c-.5,0-1.01-.08-1.52-.26-2.38-.84-3.63-3.44-2.79-5.82.43-1.23.85-2.49,1.24-3.74.75-2.41,3.31-3.75,5.72-3,2.41.75,3.75,3.31,3,5.72-.42,1.35-.87,2.72-1.35,4.06-.66,1.88-2.42,3.05-4.31,3.05Z"/>
            </g>
          </g>
          <g id="g2104">
            <g id="path2106">
              <path class="st1" d="M125.48,196.2c-14.82,0-30.18-3.6-45.63-10.69-12.27-5.64-24.61-13.47-36.68-23.28-10.87-8.84-19.37-17.55-24.58-23.31-3.16-3.49-5.4-6.2-6.73-7.87-2.7-3.38-3.28-4.27-3.28-5.94s.66-2.72,3.26-6.04c1.3-1.66,3.53-4.38,6.75-7.94,5.18-5.73,13.64-14.43,24.59-23.3,12.05-9.77,24.4-17.57,36.68-23.18,15.44-7.05,30.79-10.63,45.62-10.63s30.18,3.6,45.63,10.69c12.27,5.64,24.61,13.47,36.68,23.28,10.87,8.84,19.37,17.55,24.58,23.31,3.16,3.49,5.4,6.2,6.73,7.86,2.7,3.38,3.28,4.27,3.28,5.94s-.65,2.73-3.26,6.04c-1.3,1.66-3.53,4.38-6.75,7.94-5.18,5.73-13.64,14.42-24.59,23.3-12.05,9.77-24.4,17.57-36.68,23.18-15.44,7.05-30.79,10.63-45.62,10.63ZM18.75,125.06c4.17,5.26,15.68,18.56,31.84,31.42,11.3,8.99,22.79,16.13,34.15,21.22,13.88,6.22,27.58,9.37,40.74,9.37s26.81-3.12,40.65-9.28c11.35-5.05,22.82-12.13,34.09-21.04,16.49-13.04,27.94-26.4,31.99-31.59-4.17-5.26-15.68-18.56-31.84-31.42-11.3-8.99-22.79-16.13-34.15-21.22-13.87-6.22-27.58-9.37-40.74-9.37s-26.81,3.12-40.65,9.28c-11.35,5.05-22.82,12.13-34.09,21.04-16.48,13.04-27.94,26.4-31.99,31.58ZM233.85,127.36h0,0Z"/>
            </g>
          </g>
          <g id="g2108">
            <g id="path2110">
              <path class="st1" d="M125.48,196.2c-39.2,0-71.09-31.89-71.09-71.09s31.89-71.09,71.09-71.09,71.09,31.89,71.09,71.09-31.89,71.09-71.09,71.09ZM125.48,63.16c-34.16,0-61.96,27.79-61.96,61.96s27.79,61.96,61.96,61.96,61.96-27.79,61.96-61.96-27.79-61.96-61.96-61.96Z"/>
            </g>
          </g>
          <g id="g2112">
            <g id="path2114">
              <path class="st1" d="M125.48,168.02c-10.99,0-21.98-4.18-30.35-12.55-16.74-16.74-16.74-43.97,0-60.7,11.15-11.15,27.47-15.28,42.59-10.8,2.42.72,3.8,3.26,3.08,5.68-.72,2.42-3.26,3.8-5.68,3.08-11.91-3.53-24.76-.28-33.54,8.5-13.18,13.18-13.18,34.61,0,47.79,13.18,13.18,34.61,13.17,47.79,0,8.77-8.77,12.03-21.61,8.5-33.52-.72-2.42.66-4.96,3.08-5.67,2.42-.72,4.96.66,5.67,3.08,4.48,15.12.34,31.43-10.8,42.57-8.37,8.37-19.36,12.55-30.35,12.55Z"/>
            </g>
          </g>
          <g id="g2116">
            <g id="path2118">
              <path class="st1" d="M117.04,146.1c-1.56,0-3.11-.41-4.53-1.23-2.84-1.64-4.53-4.58-4.53-7.85v-23.79c0-3.28,1.7-6.21,4.53-7.85,2.84-1.64,6.23-1.64,9.07,0l20.61,11.9c2.84,1.64,4.53,4.58,4.53,7.85s-1.7,6.21-4.53,7.85l-20.61,11.9c-1.42.82-2.98,1.23-4.53,1.23ZM117.11,113.33v23.57s20.41-11.78,20.41-11.78l-20.41-11.79ZM137.63,125.18h0,0ZM117,113.27h0Z"/>
            </g>
          </g>
          <g id="g2120">
            <g id="path2122">
              <path class="st1" d="M152.6,102.56c-.15,0-.3-.01-.45-.02s-.3-.04-.45-.07c-.29-.06-.58-.14-.85-.26-.28-.11-.54-.25-.79-.42-.12-.08-.25-.17-.36-.27-.11-.1-.23-.2-.33-.3-.11-.11-.21-.22-.3-.33s-.18-.24-.27-.36c-.16-.25-.3-.51-.42-.79-.12-.27-.2-.56-.26-.85-.03-.15-.05-.3-.07-.45-.01-.15-.02-.3-.02-.45s0-.3.02-.45c.02-.15.04-.3.07-.44.06-.29.14-.58.26-.86.11-.27.25-.54.42-.79.08-.12.17-.25.27-.36.1-.12.2-.23.3-.34.11-.1.22-.21.33-.3.12-.09.24-.18.36-.26.25-.16.51-.31.79-.42.27-.11.56-.2.85-.26.15-.03.3-.05.45-.07.3-.03.6-.03.9,0,.15.01.3.03.45.07.29.06.58.15.85.26.27.11.54.26.79.42.12.08.25.17.36.26.12.1.23.2.34.3.11.11.21.22.3.34.09.11.18.24.27.36.16.25.3.51.42.79.11.28.2.57.26.86.03.14.05.29.07.44.01.15.02.3.02.45s0,.3-.02.45c-.02.15-.04.3-.07.45-.06.29-.15.58-.26.85-.11.28-.25.54-.42.79-.08.13-.17.25-.26.36-.1.12-.2.23-.3.33-.11.11-.22.21-.34.3-.11.1-.24.18-.36.27-.25.16-.51.3-.79.42-.28.12-.56.2-.85.26-.15.03-.3.05-.45.07s-.3.02-.45.02Z"/>
            </g>
          </g>
        </g>
      </g>
    </g>
  </g>
</svg>